<?xml version="1.0" encoding="utf-8"?>
<svg viewBox="130 100 200 200" xmlns="http://www.w3.org/2000/svg">
  <path style="stroke: rgb(0, 0, 0); fill: rgb(168, 168, 168);" d="M 272.084 192.479 C 282.381 192.479 291.12 200.513 293.612 210.334 C 295.661 218.407 303.822 221.963 310.854 218.324 C 313.793 216.803 315.24 214.02 315.387 211.797 C 317.045 186.859 318.165 159.652 314.893 136.906 C 315.24 136.565 304.534 122.934 297.337 118.534 C 294.603 116.864 291.465 120.008 292.338 122.268 C 293.37 124.941 295.973 125.851 298.653 128.765 C 299.79 130.002 303.901 132.688 302.214 134.751 C 300.35 137.03 296.952 151.055 298.65 152.595 C 300.903 154.639 305.073 153.067 307.811 152.547 C 313.199 156.713 309.056 203.932 308.74 207.388 C 308.849 210.055 305.443 211.124 303.041 209.883 C 302.151 209.423 301.504 208.611 301.261 207.651 C 297.956 194.583 286.167 185.054 272.487 184.721"/>
  <path d="M 202.925 100.773 L 261.217 100.773 C 267.141 100.773 271.944 105.576 271.944 111.5 L 271.944 228.083 C 265.426 228.342 198.274 227.842 192.198 228.083 L 192.198 111.5 C 192.198 105.576 197.001 100.773 202.925 100.773 Z" style="stroke: rgb(0, 0, 0); fill: rgb(168, 168, 168);&quot; d=&quot;M 202.925 100.773 H 261.217 A 10.727 10.727 0 0 1 271.944 111.5 V 228.083 A 10.727 10.727 0 0 1 261.217 238.81 H 202.925 A 10.727 10.727 0 0 1 192.198 228.083 V 111.5 A 10.727 10.727 0 0 1 202.925 100.773 Z"/>
  <rect x="209.604" y="115.346" width="45.945" height="31.979" style="stroke: rgb(0, 0, 0); fill: rgb(255, 255, 255);" rx="6.679" ry="6.679"/>
  <rect x="171.969" y="230.715" width="118.505" height="13.966" style="stroke: rgb(0, 0, 0); fill: rgb(168, 168, 168);" rx="6.983" ry="6.983"/>
</svg>