<svg viewBox="60 5 75 75" xmlns="http://www.w3.org/2000/svg">
  <path d="M 123.436 17.834 L 114.541 17.834 C 112.933 17.841 112.993 20.906 114.541 20.889 L 123.436 20.889 L 123.436 22.457 L 114.541 22.457 C 112.942 22.438 113.001 25.503 114.541 25.512 L 123.436 25.512 L 123.419 27.016 L 114.541 27.114 C 112.942 27.114 113.001 30.177 114.541 30.169 L 123.436 30.169 L 123.436 31.696 L 114.541 31.696 C 112.976 31.711 113.001 34.777 114.541 34.787 L 123.436 34.787 L 123.436 36.317 L 114.541 36.317 C 112.976 36.311 112.969 39.372 114.541 39.372 L 123.436 39.372 L 123.436 40.899 L 114.541 40.899 C 112.976 40.905 112.969 43.97 114.541 43.956 L 123.436 43.956 L 123.436 45.521 L 114.541 45.521 C 112.976 45.502 112.969 48.565 114.541 48.576 L 123.436 48.576 L 123.436 50.099 L 114.541 50.099 C 112.976 50.097 113.001 53.166 114.541 53.156 L 123.436 53.156 L 123.436 71.482 C 123.442 76.015 128.82 75.933 128.836 71.482 L 128.836 13.289 C 128.82 11.218 127.492 8.602 125.306 8.593 L 114.541 8.593 C 112.933 8.594 112.993 11.66 114.541 11.648 L 123.436 11.685 L 123.436 13.209 L 114.541 13.209 C 112.936 13.199 112.996 16.264 114.541 16.265 L 123.436 16.265 L 123.436 17.834 Z" style="fill: rgb(168, 168, 168); stroke: rgb(0, 0, 0);"/>
  <path d="M 103.553 60.088 C 103.547 55.841 98.64 51.272 92.778 54.231 L 92.778 37.985 L 94.759 8.916 L 92.037 10.11 C 91.168 10.649 88.238 37.362 87.788 37.371 C 87.606 37.375 82.812 10.172 82.661 10.149 C 82.501 10.126 83.633 10.497 79.567 8.597 L 82.519 37.985 L 82.519 54.231 C 76.656 51.272 71.908 55.869 71.907 60.055 C 71.908 63.78 75.103 66.838 79.427 66.829 C 83.782 66.838 86.916 63.41 86.916 60.055 L 86.916 43.179 L 88.381 43.179 L 88.381 60.055 C 88.381 63.811 91.623 66.591 95.225 66.767 C 95.165 68.826 95.914 71.765 97.324 72.929 C 98.977 74.297 100.946 72.548 100.138 71.124 C 99.358 69.798 98.593 69.013 99.215 66.118 C 101.812 65.04 103.547 62.771 103.553 60.088 Z M 79.593 63.43 C 76.725 63.43 74.933 60.643 76.367 58.414 C 77.032 57.38 78.263 56.743 79.593 56.743 C 81.625 56.753 83.28 58.248 83.294 60.088 C 83.285 61.922 81.638 63.41 79.593 63.43 Z M 92.155 60.088 C 92.162 58.252 93.811 56.762 95.857 56.743 C 97.905 56.76 99.555 58.251 99.558 60.088 C 99.555 61.923 97.904 63.415 95.857 63.43 C 93.811 63.413 92.161 61.923 92.155 60.088 Z" style="fill: rgb(168, 168, 168); stroke: rgb(0, 0, 0);"/>
</svg>