<?xml version="1.0" encoding="utf-8"?>
<svg viewBox="110 40 40 40" xmlns="http://www.w3.org/2000/svg">
  <path style="stroke: rgb(0, 0, 0); fill: rgb(168, 168, 168);" d="M 141.203 65.096 L 139.835 60.992 C 139.428 59.767 138.281 58.94 136.99 58.941 L 127.872 58.941 C 126.581 58.94 125.434 59.767 125.027 60.992 L 123.659 65.096 C 122.915 65.408 122.47 65.743 122.47 66.549 L 122.47 71.157 C 122.47 71.895 122.874 72.533 123.47 72.88 L 123.47 75.157 C 123.47 75.71 123.918 76.157 124.47 76.157 L 125.47 76.157 C 126.022 76.157 126.47 75.71 126.47 75.157 L 126.47 73.157 L 138.47 73.157 L 138.47 75.157 C 138.47 75.71 138.918 76.157 139.47 76.157 L 140.47 76.157 C 141.022 76.157 141.47 75.71 141.47 75.157 L 141.47 72.88 C 142.088 72.526 142.469 71.869 142.47 71.157 L 142.47 66.549 C 142.47 65.743 141.947 65.408 141.203 65.096 Z M 127.872 60.941 L 136.989 60.941 C 137.42 60.941 137.802 61.215 137.938 61.625 L 139.044 64.941 L 125.818 64.941 L 126.923 61.625 C 127.059 61.217 127.442 60.941 127.872 60.941 Z M 125.97 70.549 C 124.815 70.549 124.094 69.298 124.671 68.298 C 124.94 67.834 125.435 67.548 125.971 67.548 C 127.126 67.549 127.848 68.799 127.27 69.8 C 127.002 70.264 126.506 70.55 125.97 70.549 Z M 138.97 70.549 C 137.815 70.549 137.094 69.298 137.671 68.298 C 137.94 67.834 138.435 67.548 138.971 67.548 C 140.126 67.549 140.848 68.799 140.27 69.8 C 140.002 70.264 139.506 70.55 138.97 70.549 Z"/>
  <path d="M 129.666 53.576 L 135.518 47.724 C 136.68 48.325 138.062 48.213 138.95 47.326 C 139.634 46.641 139.865 45.66 139.659 44.713 L 138.031 45.712 L 136.866 45.944 L 135.717 44.783 L 135.997 43.547 L 136.955 42.012 C 136.008 41.805 135.025 42.034 134.342 42.718 C 133.453 43.606 133.343 44.988 133.944 46.151 L 128.092 52.003 C 126.929 51.403 125.547 51.515 124.659 52.401 C 123.975 53.087 123.744 54.067 123.951 55.014 L 125.638 53.837 L 126.772 53.723 L 127.714 54.855 L 127.761 56.001 L 126.654 57.716 C 127.6 57.922 128.583 57.694 129.267 57.009 C 130.154 56.121 130.265 54.739 129.666 53.576 Z" style="fill: rgb(168, 168, 168);stroke: rgb(0, 0, 0);"/>
</svg>