<svg xmlns="http://www.w3.org/2000/svg" xmlns:xlink="http://www.w3.org/1999/xlink" aria-hidden="true" role="img"  preserveAspectRatio="xMidYMid meet" viewBox="0 0 48 48"><g fill="none"><path fill-rule="evenodd" clip-rule="evenodd" d="M39 8H9a1 1 0 0 0-1 1v30a1 1 0 0 0 1 1h30a1 1 0 0 0 1-1V9a1 1 0 0 0-1-1zM9 6a3 3 0 0 0-3 3v30a3 3 0 0 0 3 3h30a3 3 0 0 0 3-3V9a3 3 0 0 0-3-3H9z" fill="currentColor"/><path d="M29 16h3v16h-3V16z" fill="currentColor"/><path fill-rule="evenodd" clip-rule="evenodd" d="M31 17h-1v14h1V17zm-2-1v16h3V16h-3z" fill="currentColor"/><path d="M34 19h3v10h-3V19z" fill="currentColor"/><path fill-rule="evenodd" clip-rule="evenodd" d="M36 20h-1v8h1v-8zm-2-1v10h3V19h-3z" fill="currentColor"/><path d="M19 32h-3V16h3v16z" fill="currentColor"/><path fill-rule="evenodd" clip-rule="evenodd" d="M17 31h1V17h-1v14zm2 1V16h-3v16h3z" fill="currentColor"/><path d="M14 29h-3V19h3v10z" fill="currentColor"/><path fill-rule="evenodd" clip-rule="evenodd" d="M12 28h1v-8h-1v8zm2 1V19h-3v10h3z" fill="currentColor"/><path fill-rule="evenodd" clip-rule="evenodd" d="M38 25h-4v-2h4v2z" fill="currentColor"/><path fill-rule="evenodd" clip-rule="evenodd" d="M13.5 25H10v-2h3.5v2z" fill="currentColor"/><path fill-rule="evenodd" clip-rule="evenodd" d="M27 25h-6v-2h6v2z" fill="currentColor"/></g></svg>