<svg viewBox="0 0 500 500" xmlns="http://www.w3.org/2000/svg">
  <path d="M 257.012 171.859 L 381.492 171.859 L 381.492 214.401 L 257.012 214.401 Z M 124.178 242.214 L 228.608 242.214 L 228.608 368.2 L 124.178 368.2 Z M 104.127 171.859 L 228.608 171.859 L 228.608 214.401 L 104.127 214.401 Z M 257.012 242.214 L 361.443 242.214 L 361.443 368.2 L 257.012 368.2 Z" fill-opacity="0" style="" transform="matrix(0.999972, -0.007431, 0.007431, 0.999972, -1.999886, 1.811774)"/>
  <path d="M 396.207 144.046 L 334.553 144.046 C 279.096 144.702 193.007 145.516 150.423 144.046 L 88.766 144.046 C 81.374 144.046 75.4 149.895 75.4 157.136 L 75.4 238.943 C 75.4 240.744 76.903 242.215 78.741 242.215 L 95.451 242.215 L 95.451 382.926 C 95.451 390.166 101.425 396.017 108.817 396.017 L 376.158 396.017 C 383.552 396.017 389.524 390.166 389.524 382.926 L 389.524 242.215 L 406.233 242.215 C 408.071 242.215 409.575 240.744 409.575 238.943 L 409.575 157.136 C 409.575 149.895 403.601 144.046 396.207 144.046 Z M 228.285 368.201 L 123.855 368.201 L 123.855 242.215 L 228.285 242.215 L 228.285 368.201 Z M 228.285 214.401 L 103.805 214.401 L 103.805 171.861 L 228.285 171.861 L 228.285 214.401 Z M 361.12 368.201 L 256.69 368.201 L 256.69 242.215 L 361.12 242.215 L 361.12 368.201 Z M 381.17 214.401 L 256.69 214.401 L 256.69 171.861 L 381.17 171.861 L 381.17 214.401 Z" style="" transform="matrix(0.999972, -0.007431, 0.007431, 0.999972, -1.677709, 1.808184)"/>
  <path d="M 148.15 135.541 C 148.15 135.541 154.669 144.987 159.631 145.014 C 210.525 145.286 265.794 145.066 317.766 145.112 C 324.701 145.118 331.673 135.536 331.673 135.536 C 337.891 126.252 341.302 116.397 341.302 105.272 C 341.302 74.144 315.446 48.823 283.657 48.823 C 266.363 48.823 250.784 56.35 240.215 68.213 C 229.647 56.35 214.066 48.823 196.772 48.823 C 164.984 48.823 139.127 74.144 139.127 105.272 C 139.127 116.397 142.426 126.787 148.15 135.541 Z M 226.012 133.905 L 196.772 133.905 C 180.648 133.905 167.532 121.06 167.532 105.272 C 167.532 89.483 180.648 76.639 196.772 76.639 C 212.897 76.639 226.012 89.483 226.012 105.272 L 226.012 133.905 Z M 254.417 105.272 C 254.417 89.483 267.534 76.639 283.657 76.639 C 299.782 76.639 312.898 89.483 312.898 105.272 C 312.898 121.06 299.782 133.905 283.657 133.905 L 254.417 133.905 L 254.417 105.272 Z" style="" transform="matrix(0.999972, -0.007431, 0.007431, 0.999972, -0.678372, 1.78758)"/>
</svg>